<?xml version="1.0" standalone="no"?>
<!DOCTYPE svg PUBLIC "-//W3C//DTD SVG 20010904//EN"
 "http://www.w3.org/TR/2001/REC-SVG-20010904/DTD/svg10.dtd">
<svg version="1.0" xmlns="http://www.w3.org/2000/svg"
 width="855.000000pt" height="855.000000pt" viewBox="0 0 855.000000 855.000000"
 preserveAspectRatio="xMidYMid meet">
<metadata>
Created by potrace 1.14, written by Peter Selinger 2001-2017
</metadata>
<g transform="translate(0.000000,855.000000) scale(0.100000,-0.100000)"
fill="#000000" stroke="none">
<path d="M4019 8547 c-2 -3 -45 -7 -96 -11 -571 -40 -1222 -249 -1732 -554
-196 -117 -421 -275 -545 -382 -581 -500 -984 -1060 -1249 -1735 -50 -127
-148 -424 -161 -492 -3 -16 -17 -77 -31 -138 -32 -144 -60 -308 -81 -475 -18
-154 -28 -667 -14 -820 12 -139 33 -309 46 -375 2 -11 9 -47 14 -80 41 -255
150 -622 265 -894 225 -534 534 -992 941 -1393 279 -275 537 -471 884 -672 98
-57 372 -188 490 -235 376 -149 771 -243 1165 -278 170 -15 721 -8 820 11 11
2 47 7 80 11 111 12 329 55 480 95 1349 350 2439 1369 2908 2717 108 311 166
575 222 1018 10 81 14 663 5 750 -5 44 -11 109 -15 145 -3 36 -8 76 -10 90 -2
14 -7 43 -10 65 -16 115 -50 287 -86 428 -377 1503 -1535 2690 -2994 3072
-355 93 -602 126 -996 131 -162 3 -297 3 -300 1z"/>
</g>
</svg>
